HIERARCHY
ROOT Hips
{
	OFFSET 0.000000 71.427986 0.000000
	CHANNELS 6 Xposition Yposition Zposition Xrotation Yrotation Zrotation
	JOINT Pelvis
	{
		OFFSET 0.000000 0.000000 0.000000
		CHANNELS 3 Xrotation Yrotation Zrotation
		JOINT LeftUpLeg
		{
			OFFSET 6.797100 -2.508499 -1.318700
			CHANNELS 3 Xrotation Yrotation Zrotation
			JOINT LeftLeg
			{
				OFFSET 0.069008 -29.241863 0.690200
				CHANNELS 3 Xrotation Yrotation Zrotation
				JOINT LeftFoot
				{
					OFFSET -0.069008 -29.568123 -0.266800
					CHANNELS 3 Xrotation Yrotation Zrotation
					JOINT LeftToeBase
					{
						OFFSET 3.145500 -8.631000 16.059900
						CHANNELS 3 Xrotation Yrotation Zrotation
						End Site
						{
							OFFSET 0.000000 18.501587 0.000000
						}
					}
				}
			}
			JOINT Left_ShortSleeve
			{
				OFFSET 0.265923 -10.480953 1.153800
				CHANNELS 3 Xrotation Yrotation Zrotation
				End Site
				{
					OFFSET 1.725763 19.823879 0.000000
				}
			}
		}
		JOINT RightUpLeg
		{
			OFFSET -6.797100 -2.508499 -1.318700
			CHANNELS 3 Xrotation Yrotation Zrotation
			JOINT RightLeg
			{
				OFFSET -0.082453 -29.241932 0.688000
				CHANNELS 3 Xrotation Yrotation Zrotation
				JOINT RightFoot
				{
					OFFSET 0.082453 -29.568058 -0.264600
					CHANNELS 3 Xrotation Yrotation Zrotation
					JOINT RightToeBase
					{
						OFFSET -3.115300 -8.682800 16.113400
						CHANNELS 3 Xrotation Yrotation Zrotation
						End Site
						{
							OFFSET 0.000000 18.567114 0.000000
						}
					}
				}
			}
			JOINT Right_ShortSleeve
			{
				OFFSET -0.265923 -10.480953 1.153800
				CHANNELS 3 Xrotation Yrotation Zrotation
				End Site
				{
					OFFSET -1.725766 19.823910 0.000000
				}
			}
		}
	}
	JOINT Spine
	{
		OFFSET 0.000000 13.368103 0.470500
		CHANNELS 3 Xrotation Yrotation Zrotation
		JOINT Spine1
		{
			OFFSET 0.147000 13.837402 0.538800
			CHANNELS 3 Xrotation Yrotation Zrotation
			JOINT Spine2
			{
				OFFSET 0.168000 16.242897 -1.435500
				CHANNELS 3 Xrotation Yrotation Zrotation
				JOINT Neck
				{
					OFFSET 0.217200 18.631500 -1.679100
					CHANNELS 3 Xrotation Yrotation Zrotation
					JOINT Head
					{
						OFFSET 0.000000 6.599396 1.385900
						CHANNELS 3 Xrotation Yrotation Zrotation
						JOINT Hat
						{
							OFFSET -0.532200 27.220596 -10.096100
							CHANNELS 3 Xrotation Yrotation Zrotation
							End Site
							{
								OFFSET 0.000000 22.029861 0.000000
							}
						}
						JOINT HairD
						{
							OFFSET -10.777400 17.437393 -1.325900
							CHANNELS 3 Xrotation Yrotation Zrotation
							JOINT HairD1
							{
								OFFSET -3.290299 -11.051193 1.062200
								CHANNELS 3 Xrotation Yrotation Zrotation
								End Site
								{
									OFFSET 0.000000 11.579437 0.000000
								}
							}
						}
						JOINT HairB
						{
							OFFSET -10.777400 17.437393 1.467900
							CHANNELS 3 Xrotation Yrotation Zrotation
							JOINT HairB1
							{
								OFFSET -1.561200 -12.956299 3.590200
								CHANNELS 3 Xrotation Yrotation Zrotation
								End Site
								{
									OFFSET 0.000000 13.534866 0.000000
								}
							}
						}
						JOINT HairA
						{
							OFFSET 9.713100 17.437393 1.467900
							CHANNELS 3 Xrotation Yrotation Zrotation
							JOINT HairA1
							{
								OFFSET 1.561200 -12.956299 3.590200
								CHANNELS 3 Xrotation Yrotation Zrotation
								End Site
								{
									OFFSET 0.000000 13.534866 0.000000
								}
							}
						}
						JOINT HairC
						{
							OFFSET 9.713100 17.437393 -1.325900
							CHANNELS 3 Xrotation Yrotation Zrotation
							JOINT HairC1
							{
								OFFSET 3.290300 -11.051193 1.062200
								CHANNELS 3 Xrotation Yrotation Zrotation
								End Site
								{
									OFFSET 0.000000 11.579437 0.000000
								}
							}
						}
					}
				}
				JOINT LeftShoulder
				{
					OFFSET 5.101800 15.108002 -2.763700
					CHANNELS 3 Xrotation Yrotation Zrotation
					JOINT LeftArm
					{
						OFFSET 9.825497 2.506317 -1.597400
						CHANNELS 3 Xrotation Yrotation Zrotation
						JOINT LeftForeArm
						{
							OFFSET 21.966244 0.000000 0.000000
							CHANNELS 3 Xrotation Yrotation Zrotation
							JOINT LeftHand
							{
								OFFSET 33.879036 0.000000 0.000000
								CHANNELS 3 Xrotation Yrotation Zrotation
								JOINT LeftHandThumb1
								{
									OFFSET 6.715286 -2.359680 3.363841
									CHANNELS 3 Xrotation Yrotation Zrotation
									JOINT LeftHandThumb2
									{
										OFFSET 2.507072 -1.447464 1.447461
										CHANNELS 3 Xrotation Yrotation Zrotation
										JOINT LeftHandThumb3
										{
											OFFSET 2.898338 -1.673355 1.673357
											CHANNELS 3 Xrotation Yrotation Zrotation
											End Site
											{
												OFFSET -0.295959 3.727692 -0.131651
											}
										}
									}
								}
								JOINT LeftHandIndex1
								{
									OFFSET 14.190811 -0.254547 3.840278
									CHANNELS 3 Xrotation Yrotation Zrotation
									JOINT LeftHandIndex2
									{
										OFFSET 3.551727 0.000000 -0.000000
										CHANNELS 3 Xrotation Yrotation Zrotation
										JOINT LeftHandIndex3
										{
											OFFSET 2.894196 0.000000 0.000000
											CHANNELS 3 Xrotation Yrotation Zrotation
											End Site
											{
												OFFSET -1.000603 2.690872 0.366626
											}
										}
									}
								}
								JOINT LeftHandMiddle1
								{
									OFFSET 13.776489 0.000000 0.000000
									CHANNELS 3 Xrotation Yrotation Zrotation
									JOINT LeftHandMiddle2
									{
										OFFSET 3.438232 0.000000 0.000000
										CHANNELS 3 Xrotation Yrotation Zrotation
										JOINT LeftHandMiddle3
										{
											OFFSET 3.691551 0.000000 0.000000
											CHANNELS 3 Xrotation Yrotation Zrotation
											End Site
											{
												OFFSET -1.082298 3.499527 0.457670
											}
										}
									}
								}
								JOINT LeftHandRing1
								{
									OFFSET 13.966164 -0.268127 -3.067488
									CHANNELS 3 Xrotation Yrotation Zrotation
									JOINT LeftHandRing2
									{
										OFFSET 3.162567 0.000000 0.000000
										CHANNELS 3 Xrotation Yrotation Zrotation
										JOINT LeftHandRing3
										{
											OFFSET 3.324348 0.000000 0.000000
											CHANNELS 3 Xrotation Yrotation Zrotation
											End Site
											{
												OFFSET -0.861900 3.184998 0.405154
											}
										}
									}
								}
								JOINT LeftHandPinky1
								{
									OFFSET 13.131393 -0.168503 -5.746925
									CHANNELS 3 Xrotation Yrotation Zrotation
									JOINT LeftHandPinky2
									{
										OFFSET 2.849182 0.000000 0.000000
										CHANNELS 3 Xrotation Yrotation Zrotation
										JOINT LeftHandPinky3
										{
											OFFSET 2.805038 0.000000 0.000000
											CHANNELS 3 Xrotation Yrotation Zrotation
											End Site
											{
												OFFSET -0.882500 2.642609 0.325652
											}
										}
									}
								}
							}
							JOINT Left_Sleeve
							{
								OFFSET 6.592125 -0.646545 0.805568
								CHANNELS 3 Xrotation Yrotation Zrotation
								End Site
								{
									OFFSET -0.000179 20.275787 -0.000000
								}
							}
						}
					}
				}
				JOINT RightShoulder
				{
					OFFSET -5.731700 15.108002 -2.763700
					CHANNELS 3 Xrotation Yrotation Zrotation
					JOINT RightArm
					{
						OFFSET -9.825497 2.506317 -1.597400
						CHANNELS 3 Xrotation Yrotation Zrotation
						JOINT RightForeArm
						{
							OFFSET -21.966242 0.000000 0.000000
							CHANNELS 3 Xrotation Yrotation Zrotation
							JOINT RightHand
							{
								OFFSET -33.879032 0.000000 0.000000
								CHANNELS 3 Xrotation Yrotation Zrotation
								JOINT RightHandThumb1
								{
									OFFSET -6.715286 -2.359680 3.363841
									CHANNELS 3 Xrotation Yrotation Zrotation
									JOINT RightHandThumb2
									{
										OFFSET -2.507072 -1.447464 1.447461
										CHANNELS 3 Xrotation Yrotation Zrotation
										JOINT RightHandThumb3
										{
											OFFSET -2.898338 -1.673355 1.673357
											CHANNELS 3 Xrotation Yrotation Zrotation
											End Site
											{
												OFFSET 0.295959 3.727692 -0.131651
											}
										}
									}
								}
								JOINT RightHandIndex1
								{
									OFFSET -14.190811 -0.254547 3.840278
									CHANNELS 3 Xrotation Yrotation Zrotation
									JOINT RightHandIndex2
									{
										OFFSET -3.551727 0.000000 -0.000000
										CHANNELS 3 Xrotation Yrotation Zrotation
										JOINT RightHandIndex3
										{
											OFFSET -2.894196 0.000000 0.000000
											CHANNELS 3 Xrotation Yrotation Zrotation
											End Site
											{
												OFFSET 1.000603 2.690872 0.366626
											}
										}
									}
								}
								JOINT RightHandMiddle1
								{
									OFFSET -13.776489 0.000000 0.000000
									CHANNELS 3 Xrotation Yrotation Zrotation
									JOINT RightHandMiddle2
									{
										OFFSET -3.438232 0.000000 0.000000
										CHANNELS 3 Xrotation Yrotation Zrotation
										JOINT RightHandMiddle3
										{
											OFFSET -3.691551 0.000000 0.000000
											CHANNELS 3 Xrotation Yrotation Zrotation
											End Site
											{
												OFFSET 1.082298 3.499527 0.457670
											}
										}
									}
								}
								JOINT RightHandRing1
								{
									OFFSET -13.966164 -0.268127 -3.067488
									CHANNELS 3 Xrotation Yrotation Zrotation
									JOINT RightHandRing2
									{
										OFFSET -3.162567 0.000000 0.000000
										CHANNELS 3 Xrotation Yrotation Zrotation
										JOINT RightHandRing3
										{
											OFFSET -3.324348 0.000000 0.000000
											CHANNELS 3 Xrotation Yrotation Zrotation
											End Site
											{
												OFFSET 0.861900 3.184998 0.405154
											}
										}
									}
								}
								JOINT RightHandPinky1
								{
									OFFSET -13.131393 -0.168503 -5.746925
									CHANNELS 3 Xrotation Yrotation Zrotation
									JOINT RightHandPinky2
									{
										OFFSET -2.849182 0.000000 0.000000
										CHANNELS 3 Xrotation Yrotation Zrotation
										JOINT RightHandPinky3
										{
											OFFSET -2.805038 0.000000 0.000000
											CHANNELS 3 Xrotation Yrotation Zrotation
											End Site
											{
												OFFSET 0.882500 2.642609 0.325652
											}
										}
									}
								}
							}
							JOINT Right_Sleeve
							{
								OFFSET -6.592125 -0.646545 0.805568
								CHANNELS 3 Xrotation Yrotation Zrotation
								End Site
								{
									OFFSET 0.000179 20.275787 -0.000000
								}
							}
						}
					}
				}
				JOINT Bind_Right_JacketString
				{
					OFFSET -3.534800 11.969597 7.200700
					CHANNELS 3 Xrotation Yrotation Zrotation
					JOINT Bind_Right_JacketString1
					{
						OFFSET -0.319900 -6.102600 2.794100
						CHANNELS 3 Xrotation Yrotation Zrotation
						End Site
						{
							OFFSET 0.000000 6.719452 0.000000
						}
					}
				}
				JOINT Bind_Left_JacketString
				{
					OFFSET 2.904800 11.969597 7.200700
					CHANNELS 3 Xrotation Yrotation Zrotation
					JOINT Bind_Left_JacketString1
					{
						OFFSET 0.364800 -5.904503 3.186800
						CHANNELS 3 Xrotation Yrotation Zrotation
						End Site
						{
							OFFSET 0.000000 6.719513 0.000000
						}
					}
				}
				JOINT HairE
				{
					OFFSET 5.915200 17.612701 -11.592200
					CHANNELS 3 Xrotation Yrotation Zrotation
					JOINT HairE1
					{
						OFFSET 0.289200 -7.171898 -1.284500
						CHANNELS 3 Xrotation Yrotation Zrotation
						End Site
						{
							OFFSET 0.000000 7.291756 0.000000
						}
					}
				}
				JOINT HairF
				{
					OFFSET -0.864800 17.612701 -11.592200
					CHANNELS 3 Xrotation Yrotation Zrotation
					JOINT HairF1
					{
						OFFSET 0.000000 -14.087097 -2.127501
						CHANNELS 3 Xrotation Yrotation Zrotation
						End Site
						{
							OFFSET 0.000000 14.246841 0.000000
						}
					}
				}
				JOINT HairG
				{
					OFFSET -8.087700 17.612701 -11.592200
					CHANNELS 3 Xrotation Yrotation Zrotation
					JOINT HairG1
					{
						OFFSET -0.293600 -6.081398 -0.910100
						CHANNELS 3 Xrotation Yrotation Zrotation
						End Site
						{
							OFFSET 0.000000 6.156120 0.000000
						}
					}
				}
			}
		}
	}
	JOINT Pouch
	{
		OFFSET 0.000000 4.394501 10.847300
		CHANNELS 3 Xrotation Yrotation Zrotation
		End Site
		{
			OFFSET 0.000000 21.880577 0.000000
		}
	}
	JOINT Bag
	{
		OFFSET -13.229000 4.813004 -0.593300
		CHANNELS 3 Xrotation Yrotation Zrotation
		End Site
		{
			OFFSET 0.000000 21.880577 0.000000
		}
	}
	JOINT OccupyGuyFacialAnim_Joint
	{
		OFFSET 1.000000 -70.206398 -1.655000
		CHANNELS 3 Xrotation Yrotation Zrotation
		End Site
		{
			OFFSET 0.000000 21.880577 0.000000
		}
	}
}
MOTION
Frames: 4
Frame Time: 0.016667
0.234236 58.479271 -3.085004 -11.642983 4.164736 0.302170 0.000000 -0.000000 -0.000000 -31.268729 -1.719051 13.697050 72.537231 -0.312043 0.507604 -29.480944 -3.401515 -10.923897 -0.000000 -0.000000 0.000000 -0.000003 -0.000001 -0.000000 -28.572116 -7.474504 -18.369756 73.500096 -0.180834 -0.566668 -32.551135 -2.200174 10.371052 0.000000 0.000000 0.000000 0.000001 0.000000 -0.000002 23.956264 0.141477 0.856929 13.992117 -0.012110 0.874928 13.993088 -0.019273 0.870006 17.101286 -1.158555 -1.120069 -9.419544 -3.200687 0.179589 -0.000001 0.000000 0.000000 -0.000001 0.000000 0.000000 -0.000001 0.000000 0.000000 -0.000001 0.000000 0.000000 -0.000002 -0.000000 0.000000 -0.000001 0.000000 0.000000 -0.000002 -0.000000 0.000000 -0.000001 0.000000 0.000000 -0.000001 0.000000 0.000000 1.274354 -20.464770 -8.784591 -24.361970 0.125581 -58.409531 -134.037053 -77.572425 -130.766226 -10.954441 -21.976301 17.417660 20.303017 9.934885 -19.709491 3.939290 33.659476 6.068778 0.000000 -0.000002 0.000000 11.348459 7.907845 -58.203703 11.226008 12.103215 -91.045561 0.000002 -0.000001 0.000001 -3.306156 14.721236 -56.170171 18.751043 6.507063 -95.555576 0.000003 0.000000 -0.000003 -8.496646 16.099219 -73.492221 10.309628 4.265381 -84.428371 -0.000003 0.000002 0.000000 -15.187839 25.469016 -80.134047 11.543898 -3.632269 -77.864081 -0.000002 0.000001 0.000003 0.000001 0.000000 0.000001 4.281758 6.062526 24.486793 -20.183607 30.543998 38.966902 -101.168591 66.637395 94.218614 -10.108834 25.059858 -19.829287 9.450199 -8.378784 2.091208 9.478131 -37.583010 5.312506 -0.000000 -0.000002 0.000001 9.382222 -23.801900 56.987174 11.353598 -12.107965 91.751393 -0.000000 -0.000001 -0.000002 -6.258884 -19.691618 58.403185 17.354309 -6.618598 88.873370 0.000003 -0.000000 -0.000003 -12.782190 -20.150834 66.716072 10.303235 -4.268412 84.398277 0.000000 0.000000 0.000003 -20.835260 -25.749958 77.824282 11.580056 3.626336 78.017317 -0.000002 0.000000 0.000001 -0.000000 0.000001 0.000001 0.000001 0.000000 -0.000000 0.000004 0.000000 0.000000 0.000001 0.000000 0.000000 0.000001 0.000000 0.000000 0.000001 0.000000 -0.000000 0.000004 0.000000 -0.000000 0.000001 0.000000 0.000000 0.000001 0.000000 0.000000 0.000001 0.000000 -0.000000 0.000004 0.000000 -0.000000 0.000000 -0.000000 -0.000000 0.000000 -0.000000 -0.000000 0.000000 -0.000000 -0.000000 
0.199464 58.720291 -2.848164 -12.233067 4.193084 0.268242 -0.000000 -0.000000 -0.000000 -29.989004 -1.783268 13.728766 71.883397 -0.315401 0.503838 -29.501732 -3.254530 -10.999453 0.000000 -0.000000 0.000000 0.000001 0.000000 -0.000000 -27.287396 -7.740384 -18.191471 72.779607 -0.141652 -0.557874 -32.543461 -2.267054 10.331808 0.000000 0.000002 0.000000 -0.000000 0.000000 -0.000000 23.831015 0.133765 0.859573 13.805199 -0.026557 0.877420 13.806108 -0.034361 0.873753 16.072149 -1.248017 -1.155621 -9.382866 -3.306537 0.444387 -0.000001 0.000000 0.000000 -0.000001 0.000000 0.000000 -0.000001 0.000000 0.000000 -0.000001 0.000000 0.000000 -0.000001 -0.000000 0.000000 -0.000001 0.000000 0.000000 -0.000001 -0.000000 0.000000 -0.000001 0.000000 0.000000 -0.000001 0.000000 0.000000 1.202829 -20.287494 -9.383894 -23.683030 -0.501267 -58.145059 -129.876757 -77.684584 -126.406010 -10.999875 -21.654345 17.436769 20.302780 9.934940 -19.709105 3.939272 33.659473 6.068791 -0.000001 0.000002 0.000001 11.348452 7.907837 -58.203682 11.226452 12.103486 -91.045588 0.000001 0.000001 -0.000000 -3.306147 14.721238 -56.170181 18.751053 6.507051 -95.555576 -0.000000 0.000000 0.000001 -8.496660 16.099200 -73.492221 10.309644 4.265582 -84.428371 0.000000 0.000003 0.000002 -15.187849 25.469002 -80.134061 11.543899 -3.632263 -77.864088 0.000003 -0.000001 0.000001 0.000000 0.000001 0.000001 4.360491 5.935283 25.053796 -19.084839 29.887685 38.977226 -103.118282 67.822891 95.667188 -10.145655 25.283419 -19.500494 9.446297 -8.364350 2.093525 9.477985 -37.583065 5.312458 -0.000000 0.000002 0.000000 9.382233 -23.801901 56.987174 11.353624 -12.108272 91.751427 -0.000001 -0.000001 0.000002 -6.258494 -19.691540 58.403226 17.354341 -6.618611 88.873356 0.000001 0.000000 -0.000004 -12.782163 -20.150846 66.716072 10.303232 -4.268408 84.398277 0.000002 -0.000001 -0.000000 -20.835243 -25.749955 77.824289 11.580030 3.626328 78.017358 0.000003 0.000000 -0.000001 0.000000 -0.000000 0.000001 0.000003 0.000000 -0.000000 0.000003 0.000000 -0.000000 0.000003 0.000000 -0.000000 0.000003 0.000000 -0.000000 0.000003 0.000000 -0.000000 0.000003 0.000000 -0.000000 0.000003 0.000000 -0.000000 0.000003 0.000000 -0.000000 0.000003 0.000000 -0.000000 0.000003 0.000000 -0.000000 -0.000000 -0.000000 -0.000000 -0.000000 -0.000000 -0.000000 -0.000000 -0.000000 -0.000000 
0.153068 58.942665 -2.634954 -12.399998 4.228388 0.267790 0.000001 0.000000 0.000000 -29.188711 -1.821294 13.711489 71.217863 -0.309614 0.500180 -29.456389 -3.129402 -11.078060 -0.000000 -0.000000 0.000000 0.000001 -0.000000 -0.000000 -26.505379 -7.944404 -18.047356 72.115582 -0.134525 -0.550408 -32.512240 -2.334990 10.292427 -0.000000 -0.000000 -0.000000 -0.000003 0.000000 -0.000000 23.645147 0.110220 0.857398 13.485197 -0.074092 0.867700 13.486085 -0.083624 0.864977 15.039849 -1.249821 -1.288811 -9.417303 -3.318419 0.602191 0.000001 0.000000 0.000000 0.000001 0.000000 0.000000 0.000001 0.000000 -0.000000 0.000001 0.000000 0.000000 0.000001 0.000000 0.000000 0.000001 0.000000 0.000000 0.000001 0.000000 0.000000 0.000001 0.000000 0.000000 0.000001 0.000000 0.000000 1.157233 -20.150265 -9.778062 -22.947107 -1.113764 -58.002909 -128.515788 -78.463793 -124.614561 -11.059307 -21.593657 17.251449 20.302567 9.934984 -19.708706 3.939323 33.659507 6.068747 -0.000002 -0.000000 0.000000 11.348474 7.907833 -58.203703 11.226833 12.103736 -91.045636 0.000001 0.000000 -0.000002 -3.306138 14.721255 -56.170154 18.751074 6.507041 -95.555569 -0.000000 0.000001 0.000001 -8.496650 16.099222 -73.492221 10.309662 4.265835 -84.428446 -0.000001 0.000000 0.000003 -15.187863 25.469016 -80.134040 11.543925 -3.632261 -77.864102 -0.000001 -0.000002 -0.000003 0.000000 0.000001 0.000000 4.416303 5.793506 25.390709 -17.739863 29.670171 39.116726 -104.281566 68.988585 96.225938 -10.264608 25.068404 -18.893381 9.441724 -8.346805 2.096339 9.477906 -37.583109 5.312435 -0.000000 -0.000001 -0.000000 9.382248 -23.801908 56.987195 11.353684 -12.108537 91.751406 0.000001 0.000000 0.000000 -6.258160 -19.691432 58.403254 17.354309 -6.618607 88.873349 -0.000001 -0.000000 -0.000003 -12.782164 -20.150842 66.716072 10.303238 -4.268425 84.398291 -0.000002 0.000000 -0.000002 -20.835258 -25.749960 77.824282 11.580044 3.626337 78.017358 0.000008 0.000002 -0.000003 -0.000000 -0.000000 0.000001 -0.000001 0.000000 -0.000000 -0.000003 0.000000 -0.000000 -0.000001 0.000000 -0.000000 -0.000001 0.000000 -0.000000 -0.000001 0.000000 -0.000000 -0.000003 0.000000 -0.000000 -0.000001 0.000000 -0.000000 -0.000001 0.000000 -0.000000 -0.000001 0.000000 -0.000000 -0.000003 0.000000 -0.000000 0.000001 0.000000 0.000000 0.000001 0.000000 0.000000 0.000001 0.000000 0.000000 
0.097364 59.159065 -2.421664 -12.415093 4.267977 0.288753 -0.000001 0.000000 0.000000 -28.554366 -1.817867 13.696026 70.536320 -0.331231 0.495727 -29.387961 -3.024662 -11.144253 0.000000 0.000001 0.000000 0.000003 -0.000000 0.000001 -25.900084 -8.143127 -17.932583 71.471871 -0.110067 -0.542725 -32.483963 -2.408107 10.232694 0.000000 0.000002 -0.000000 -0.000001 0.000000 -0.000001 23.415002 0.065531 0.857958 13.067816 -0.162274 0.825650 13.068618 -0.171245 0.822490 13.978614 -1.216191 -1.482818 -9.588725 -3.290705 0.698248 -0.000001 -0.000000 0.000000 -0.000001 -0.000000 0.000000 -0.000001 -0.000000 0.000000 -0.000001 -0.000000 0.000000 -0.000001 0.000000 0.000000 -0.000001 -0.000000 0.000000 -0.000001 0.000000 0.000000 -0.000001 -0.000000 0.000000 -0.000001 -0.000000 0.000000 1.128236 -20.026956 -10.044966 -22.214354 -1.700945 -57.924628 -130.357043 -79.992341 -125.863680 -11.142035 -21.528971 16.750349 20.302382 9.935043 -19.708378 3.939274 33.659476 6.068779 -0.000001 0.000002 -0.000002 11.348445 7.907830 -58.203703 11.227229 12.103992 -91.045663 0.000001 0.000000 0.000002 -3.306151 14.721243 -56.170195 18.751045 6.507066 -95.555583 0.000001 0.000000 -0.000003 -8.496638 16.099208 -73.492234 10.309683 4.266077 -84.428501 -0.000002 0.000000 0.000002 -15.187846 25.468995 -80.134074 11.543893 -3.632258 -77.864102 -0.000002 -0.000000 -0.000001 0.000000 -0.000000 0.000001 4.462499 5.633526 25.560921 -16.203661 29.709093 39.388195 -105.211886 70.240730 96.452093 -10.509732 24.499124 -18.061375 9.436397 -8.325853 2.099704 9.477804 -37.583143 5.312402 0.000000 0.000001 -0.000000 9.382269 -23.801910 56.987192 11.353711 -12.108734 91.751400 0.000000 -0.000000 0.000000 -6.257876 -19.691369 58.403295 17.354326 -6.618594 88.873356 0.000002 0.000000 0.000003 -12.782147 -20.150853 66.716079 10.303222 -4.268432 84.398277 0.000002 -0.000001 0.000001 -20.835238 -25.749965 77.824275 11.580050 3.626351 78.017358 -0.000001 -0.000001 0.000004 0.000000 -0.000000 0.000001 0.000003 0.000000 -0.000000 0.000003 -0.000000 0.000000 0.000003 0.000000 -0.000000 0.000003 0.000000 -0.000000 0.000003 0.000000 -0.000000 0.000003 -0.000000 0.000000 0.000003 0.000000 -0.000000 0.000003 0.000000 -0.000000 0.000003 0.000000 -0.000000 0.000003 -0.000000 0.000000 -0.000001 0.000000 0.000000 -0.000001 0.000000 0.000000 -0.000001 0.000000 0.000000 
